<svg id="Layer_1" enable-background="new 0 0 512.001 512.001" height="512" viewBox="0 0 512.001 512.001" width="512"
	xmlns="http://www.w3.org/2000/svg">
	<g>
		<path d="m215.986 424.001c-3.05 0-6.133-.87-8.86-2.688-7.353-4.902-9.34-14.836-4.438-22.188l16-24c4.902-7.353 14.837-9.339 22.188-4.438 7.353 4.902 9.34 14.836 4.438 22.188l-16 24c-3.084 4.625-8.158 7.126-13.328 7.126z"/>
		<path d="m79.986 424.001c-3.05 0-6.133-.87-8.86-2.688-7.353-4.902-9.34-14.836-4.438-22.188l16-24c4.901-7.353 14.837-9.339 22.188-4.438 7.353 4.902 9.34 14.836 4.438 22.188l-16 24c-3.084 4.625-8.158 7.126-13.328 7.126z"/>
		<path d="m367.986 424.001c-3.05 0-6.133-.87-8.86-2.688-7.353-4.902-9.34-14.836-4.438-22.188l16-24c4.902-7.353 14.836-9.339 22.188-4.438 7.353 4.902 9.34 14.836 4.438 22.188l-16 24c-3.084 4.625-8.158 7.126-13.328 7.126z"/>
		<path d="m215.986 512.001c-3.05 0-6.133-.87-8.86-2.688-7.353-4.902-9.34-14.836-4.438-22.188l16-24c4.902-7.353 14.837-9.339 22.188-4.438 7.353 4.902 9.34 14.836 4.438 22.188l-16 24c-3.084 4.625-8.158 7.126-13.328 7.126z"/>
		<path d="m287.986 456.001c-3.05 0-6.133-.87-8.86-2.688-7.353-4.902-9.34-14.836-4.438-22.188l16-24c4.901-7.353 14.837-9.338 22.188-4.438 7.353 4.902 9.34 14.836 4.438 22.188l-16 24c-3.084 4.625-8.158 7.126-13.328 7.126z"/>
		<path d="m359.986 512.001c-3.05 0-6.133-.87-8.86-2.688-7.353-4.902-9.34-14.836-4.438-22.188l16-24c4.901-7.353 14.836-9.339 22.188-4.438 7.353 4.902 9.34 14.836 4.438 22.188l-16 24c-3.084 4.625-8.158 7.126-13.328 7.126z"/>
		<path d="m143.986 456.001c-3.05 0-6.133-.87-8.86-2.688-7.353-4.902-9.34-14.836-4.438-22.188l16-24c4.901-7.353 14.836-9.338 22.188-4.438 7.353 4.902 9.34 14.836 4.438 22.188l-16 24c-3.084 4.625-8.158 7.126-13.328 7.126z"/>
		<path d="m71.986 512.001c-3.05 0-6.133-.87-8.86-2.688-7.353-4.902-9.34-14.836-4.438-22.188l16-24c4.901-7.353 14.837-9.339 22.188-4.438 7.353 4.902 9.34 14.836 4.438 22.188l-16 24c-3.084 4.625-8.158 7.126-13.328 7.126z"/>
		<path d="m400.001 112c-5.673 0-11.297.421-16.844 1.258-7.332-63.663-61.561-113.258-127.156-113.258s-119.824 49.595-127.157 113.258c-5.547-.837-11.17-1.258-16.844-1.258-61.757 0-112 50.243-112 112s50.243 112 112 112h288c61.757 0 112-50.243 112-112s-50.242-112-111.999-112zm5.387 191.822c-1.853.123-3.694.181-5.521.178-5.168-.008-6.874-6.914-2.312-9.344 25.255-13.454 42.446-40.049 42.446-70.656 0-30.611-17.195-57.209-42.455-70.661-4.531-2.413-2.885-9.326 2.248-9.339h.207c44.537 0 80.579 36.402 79.993 81.074-.544 41.481-33.212 76.009-74.606 78.748z"/>
	</g>
</svg>